<mxfile host="Electron" agent="Mozilla/5.0 (Macintosh; Intel Mac OS X 10_15_7) AppleWebKit/537.36 (KHTML, like Gecko) draw.io/28.0.6 Chrome/138.0.7204.100 Electron/37.2.3 Safari/537.36" version="28.0.6">
  <diagram name="Page-1" id="ewJD522G4NJ8wPOfFlx7">
    <mxGraphModel dx="1455" dy="1045" grid="1" gridSize="10" guides="1" tooltips="1" connect="1" arrows="1" fold="1" page="1" pageScale="1" pageWidth="850" pageHeight="1100" math="0" shadow="0">
      <root>
        <mxCell id="0" />
        <mxCell id="1" parent="0" />
        <mxCell id="u2N5tnfLPqeON4IzgQOu-71" value="" style="shape=cube;whiteSpace=wrap;html=1;boundedLbl=1;backgroundOutline=1;darkOpacity=0.05;darkOpacity2=0.1;hachureGap=4;fontFamily=Times New Roman;fillColor=#fad9d5;strokeColor=#ae4132;fontSize=29;sketch=1;curveFitting=1;jiggle=2;" parent="1" vertex="1">
          <mxGeometry x="224.5" y="180" width="280" height="100" as="geometry" />
        </mxCell>
        <mxCell id="u2N5tnfLPqeON4IzgQOu-70" value="" style="shape=cube;whiteSpace=wrap;html=1;boundedLbl=1;backgroundOutline=1;darkOpacity=0.05;darkOpacity2=0.1;hachureGap=4;fontFamily=Times New Roman;fillColor=#dae8fc;strokeColor=#6c8ebf;fontSize=29;sketch=1;curveFitting=1;jiggle=2;" parent="1" vertex="1">
          <mxGeometry x="220.5" y="320" width="330" height="100" as="geometry" />
        </mxCell>
        <mxCell id="u2N5tnfLPqeON4IzgQOu-69" value="" style="shape=cube;whiteSpace=wrap;html=1;boundedLbl=1;backgroundOutline=1;darkOpacity=0.05;darkOpacity2=0.1;hachureGap=4;fontFamily=Times New Roman;fillColor=#fff2cc;strokeColor=#d6b656;perimeterSpacing=1;fontSize=29;sketch=1;curveFitting=1;jiggle=2;" parent="1" vertex="1">
          <mxGeometry x="220" y="430" width="1360" height="110" as="geometry" />
        </mxCell>
        <mxCell id="u2N5tnfLPqeON4IzgQOu-67" value="" style="shape=cube;whiteSpace=wrap;html=1;boundedLbl=1;backgroundOutline=1;darkOpacity=0.05;darkOpacity2=0.1;hachureGap=4;fontFamily=Times New Roman;fillColor=#ffcc99;strokeColor=#36393d;fontSize=29;sketch=1;curveFitting=1;jiggle=2;" parent="1" vertex="1">
          <mxGeometry x="220" y="690" width="1140" height="130" as="geometry" />
        </mxCell>
        <mxCell id="u2N5tnfLPqeON4IzgQOu-1" value="cinder-api" style="rounded=1;whiteSpace=wrap;html=1;hachureGap=4;fontFamily=Times New Roman;fontSize=29;labelBackgroundColor=none;fillColor=#fad9d5;strokeColor=#ae4132;sketch=1;curveFitting=1;jiggle=2;" parent="1" vertex="1">
          <mxGeometry x="40" y="210" width="170" height="60" as="geometry" />
        </mxCell>
        <mxCell id="u2N5tnfLPqeON4IzgQOu-2" value="backup.api.API" style="whiteSpace=wrap;html=1;fontFamily=Times New Roman;rounded=1;hachureGap=4;fontSize=29;labelBackgroundColor=none;fillColor=#ffe6cc;strokeColor=#d79b00;sketch=1;curveFitting=1;jiggle=2;" parent="1" vertex="1">
          <mxGeometry x="262.63" y="210" width="203.75" height="60" as="geometry" />
        </mxCell>
        <mxCell id="u2N5tnfLPqeON4IzgQOu-4" value="cinder-scheduler" style="whiteSpace=wrap;html=1;fontFamily=Times New Roman;rounded=1;hachureGap=4;fontSize=29;labelBackgroundColor=none;fillColor=#dae8fc;strokeColor=#6c8ebf;sketch=1;curveFitting=1;jiggle=2;" parent="1" vertex="1">
          <mxGeometry x="10" y="340" width="200" height="60" as="geometry" />
        </mxCell>
        <mxCell id="u2N5tnfLPqeON4IzgQOu-8" value="&lt;span style=&quot;caret-color: rgb(0, 122, 255); color: rgb(51, 51, 51); orphans: 4; text-align: left; white-space-collapse: preserve;&quot;&gt;driver.get_backup_host&lt;/span&gt;" style="whiteSpace=wrap;html=1;fontFamily=Times New Roman;rounded=1;hachureGap=4;fontSize=29;labelBackgroundColor=none;fillColor=#e3c800;strokeColor=#B09500;fontColor=#000000;sketch=1;curveFitting=1;jiggle=2;" parent="1" vertex="1">
          <mxGeometry x="249" y="350" width="291" height="50" as="geometry" />
        </mxCell>
        <mxCell id="u2N5tnfLPqeON4IzgQOu-10" value="cinder-backup" style="whiteSpace=wrap;html=1;fontFamily=Times New Roman;rounded=1;hachureGap=4;fontSize=29;labelBackgroundColor=none;fillColor=#fff2cc;strokeColor=#d6b656;sketch=1;curveFitting=1;jiggle=2;" parent="1" vertex="1">
          <mxGeometry x="10" y="470" width="200" height="70" as="geometry" />
        </mxCell>
        <mxCell id="u2N5tnfLPqeON4IzgQOu-32" value="" style="edgeStyle=orthogonalEdgeStyle;rounded=0;hachureGap=4;orthogonalLoop=1;jettySize=auto;html=1;fontFamily=Times New Roman;fontSize=29;sketch=1;curveFitting=1;jiggle=2;" parent="1" source="u2N5tnfLPqeON4IzgQOu-14" target="u2N5tnfLPqeON4IzgQOu-21" edge="1">
          <mxGeometry relative="1" as="geometry" />
        </mxCell>
        <mxCell id="u2N5tnfLPqeON4IzgQOu-14" value="&lt;span style=&quot;caret-color: rgb(0, 122, 255); color: rgb(51, 51, 51); orphans: 4; text-align: left; white-space-collapse: preserve;&quot;&gt;_start_backup&lt;/span&gt;" style="whiteSpace=wrap;html=1;fontFamily=Times New Roman;rounded=1;hachureGap=4;fontSize=29;labelBackgroundColor=none;fillColor=#f0a30a;strokeColor=#BD7000;fontColor=#000000;sketch=1;curveFitting=1;jiggle=2;" parent="1" vertex="1">
          <mxGeometry x="230" y="470" width="160" height="60" as="geometry" />
        </mxCell>
        <mxCell id="u2N5tnfLPqeON4IzgQOu-16" value="cinder-volume" style="whiteSpace=wrap;html=1;fontFamily=Times New Roman;rounded=1;hachureGap=4;fontSize=29;labelBackgroundColor=none;fillColor=#fad7ac;strokeColor=#b46504;sketch=1;curveFitting=1;jiggle=2;" parent="1" vertex="1">
          <mxGeometry x="20" y="730" width="185" height="70" as="geometry" />
        </mxCell>
        <mxCell id="u2N5tnfLPqeON4IzgQOu-19" value="&lt;span style=&quot;caret-color: rgb(0, 122, 255); color: rgb(51, 51, 51); orphans: 4; text-align: left; white-space-collapse: preserve;&quot;&gt;get_backup_device&lt;/span&gt;" style="whiteSpace=wrap;html=1;fontFamily=Times New Roman;rounded=1;hachureGap=4;fontSize=29;labelBackgroundColor=none;fillColor=#fa6800;strokeColor=#C73500;fontColor=#000000;sketch=1;curveFitting=1;jiggle=2;" parent="1" vertex="1">
          <mxGeometry x="249" y="730" width="231" height="60" as="geometry" />
        </mxCell>
        <mxCell id="u2N5tnfLPqeON4IzgQOu-25" value="" style="edgeStyle=orthogonalEdgeStyle;rounded=0;hachureGap=4;orthogonalLoop=1;jettySize=auto;html=1;fontFamily=Times New Roman;fontSize=29;sketch=1;curveFitting=1;jiggle=2;" parent="1" source="u2N5tnfLPqeON4IzgQOu-21" target="u2N5tnfLPqeON4IzgQOu-24" edge="1">
          <mxGeometry relative="1" as="geometry" />
        </mxCell>
        <mxCell id="u2N5tnfLPqeON4IzgQOu-21" value="&lt;span style=&quot;caret-color: rgb(0, 122, 255); color: rgb(51, 51, 51); orphans: 4; text-align: left; white-space-collapse: preserve;&quot;&gt;continue_backup&lt;/span&gt;" style="whiteSpace=wrap;html=1;fontFamily=Times New Roman;rounded=1;hachureGap=4;fontSize=29;labelBackgroundColor=none;fillColor=#f0a30a;strokeColor=#BD7000;fontColor=#000000;sketch=1;curveFitting=1;jiggle=2;" parent="1" vertex="1">
          <mxGeometry x="410" y="470" width="200" height="60" as="geometry" />
        </mxCell>
        <mxCell id="u2N5tnfLPqeON4IzgQOu-23" value="" style="endArrow=none;html=1;rounded=0;hachureGap=4;fontFamily=Times New Roman;fontSize=29;labelBackgroundColor=none;startArrow=classic;startFill=1;strokeColor=#FF0080;fillColor=#d80073;strokeWidth=2;sketch=1;curveFitting=1;jiggle=2;entryX=0.075;entryY=0.991;entryDx=0;entryDy=0;entryPerimeter=0;endFill=0;" parent="1" edge="1" target="u2N5tnfLPqeON4IzgQOu-69">
          <mxGeometry width="50" height="50" relative="1" as="geometry">
            <mxPoint x="319" y="710" as="sourcePoint" />
            <mxPoint x="479" y="530" as="targetPoint" />
          </mxGeometry>
        </mxCell>
        <mxCell id="u2N5tnfLPqeON4IzgQOu-37" value="" style="edgeStyle=orthogonalEdgeStyle;rounded=0;hachureGap=4;orthogonalLoop=1;jettySize=auto;html=1;fontFamily=Times New Roman;fontSize=29;sketch=1;curveFitting=1;jiggle=2;" parent="1" source="u2N5tnfLPqeON4IzgQOu-24" target="u2N5tnfLPqeON4IzgQOu-29" edge="1">
          <mxGeometry relative="1" as="geometry" />
        </mxCell>
        <mxCell id="u2N5tnfLPqeON4IzgQOu-24" value="&lt;span style=&quot;caret-color: rgb(0, 122, 255); color: rgb(51, 51, 51); orphans: 4; text-align: left; white-space-collapse: preserve;&quot;&gt;_attach_device&lt;/span&gt;" style="whiteSpace=wrap;html=1;fontFamily=Times New Roman;rounded=1;hachureGap=4;fontSize=29;labelBackgroundColor=none;fillColor=#f0a30a;strokeColor=#BD7000;fontColor=#000000;sketch=1;curveFitting=1;jiggle=2;" parent="1" vertex="1">
          <mxGeometry x="630" y="470" width="170" height="60" as="geometry" />
        </mxCell>
        <mxCell id="u2N5tnfLPqeON4IzgQOu-26" value="&lt;span style=&quot;caret-color: rgb(0, 122, 255); color: rgb(51, 51, 51); orphans: 4; text-align: left; white-space-collapse: preserve;&quot;&gt;initialize_connection&lt;/span&gt;" style="whiteSpace=wrap;html=1;fontSize=29;fontFamily=Times New Roman;rounded=1;hachureGap=4;labelBackgroundColor=none;fillColor=#fa6800;strokeColor=#C73500;fontColor=#000000;sketch=1;curveFitting=1;jiggle=2;" parent="1" vertex="1">
          <mxGeometry x="490" y="730" width="270" height="60" as="geometry" />
        </mxCell>
        <mxCell id="u2N5tnfLPqeON4IzgQOu-55" value="" style="edgeStyle=orthogonalEdgeStyle;rounded=0;hachureGap=4;orthogonalLoop=1;jettySize=auto;html=1;fontFamily=Times New Roman;fontSize=29;sketch=1;curveFitting=1;jiggle=2;" parent="1" source="u2N5tnfLPqeON4IzgQOu-29" target="u2N5tnfLPqeON4IzgQOu-42" edge="1">
          <mxGeometry relative="1" as="geometry" />
        </mxCell>
        <mxCell id="u2N5tnfLPqeON4IzgQOu-29" value="backup_service.backup" style="whiteSpace=wrap;html=1;fontSize=29;fontFamily=Times New Roman;rounded=1;hachureGap=4;labelBackgroundColor=none;fillColor=#f0a30a;strokeColor=#BD7000;fontColor=#000000;sketch=1;curveFitting=1;jiggle=2;" parent="1" vertex="1">
          <mxGeometry x="820" y="470" width="280" height="60" as="geometry" />
        </mxCell>
        <mxCell id="u2N5tnfLPqeON4IzgQOu-34" value="" style="endArrow=classic;html=1;rounded=0;hachureGap=4;fontFamily=Times New Roman;fontSize=29;labelBackgroundColor=none;exitX=0.354;exitY=0;exitDx=0;exitDy=0;exitPerimeter=0;startArrow=classic;startFill=1;strokeColor=#FF0080;fillColor=#d80073;strokeWidth=2;sketch=1;curveFitting=1;jiggle=2;" parent="1" edge="1">
          <mxGeometry width="50" height="50" relative="1" as="geometry">
            <mxPoint x="554.9549999999999" y="720" as="sourcePoint" />
            <mxPoint x="695.04" y="540" as="targetPoint" />
          </mxGeometry>
        </mxCell>
        <mxCell id="u2N5tnfLPqeON4IzgQOu-40" value="&lt;div&gt;_connect_device&lt;/div&gt;" style="whiteSpace=wrap;html=1;fontSize=29;fontFamily=Times New Roman;rounded=1;hachureGap=4;labelBackgroundColor=none;fillColor=#fad9d5;strokeColor=#ae4132;sketch=1;curveFitting=1;jiggle=2;" parent="1" vertex="1">
          <mxGeometry x="622" y="610" width="218" height="60" as="geometry" />
        </mxCell>
        <mxCell id="fazlAJEuUnBTTpoDclUt-5" value="" style="edgeStyle=orthogonalEdgeStyle;rounded=0;sketch=1;hachureGap=4;jiggle=2;curveFitting=1;orthogonalLoop=1;jettySize=auto;html=1;fontFamily=Times New Roman;fontSize=29;" parent="1" source="u2N5tnfLPqeON4IzgQOu-42" target="fazlAJEuUnBTTpoDclUt-4" edge="1">
          <mxGeometry relative="1" as="geometry" />
        </mxCell>
        <mxCell id="u2N5tnfLPqeON4IzgQOu-42" value="_detach_device" style="whiteSpace=wrap;html=1;fontSize=29;fontFamily=Times New Roman;rounded=1;hachureGap=4;labelBackgroundColor=none;fillColor=#f0a30a;strokeColor=#BD7000;fontColor=#000000;sketch=1;curveFitting=1;jiggle=2;" parent="1" vertex="1">
          <mxGeometry x="1150" y="470" width="180" height="60" as="geometry" />
        </mxCell>
        <mxCell id="u2N5tnfLPqeON4IzgQOu-44" value="" style="endArrow=none;html=1;rounded=0;hachureGap=4;fontFamily=Times New Roman;startArrow=classic;startFill=1;endFill=0;fontSize=29;fillColor=#cce5ff;strokeColor=#CC0000;strokeWidth=3;sketch=1;curveFitting=1;jiggle=2;" parent="1" edge="1">
          <mxGeometry width="50" height="50" relative="1" as="geometry">
            <mxPoint x="760" y="600" as="sourcePoint" />
            <mxPoint x="830" y="520" as="targetPoint" />
          </mxGeometry>
        </mxCell>
        <mxCell id="u2N5tnfLPqeON4IzgQOu-57" value="connector" style="edgeLabel;html=1;align=center;verticalAlign=middle;resizable=0;points=[];hachureGap=4;fontFamily=Times New Roman;fontSize=29;sketch=1;curveFitting=1;jiggle=2;" parent="u2N5tnfLPqeON4IzgQOu-44" vertex="1" connectable="0">
          <mxGeometry x="-0.0633" y="1" relative="1" as="geometry">
            <mxPoint y="-2" as="offset" />
          </mxGeometry>
        </mxCell>
        <mxCell id="u2N5tnfLPqeON4IzgQOu-46" value="disconnect_volume" style="whiteSpace=wrap;html=1;fontSize=29;fontFamily=Times New Roman;rounded=1;hachureGap=4;labelBackgroundColor=none;fillColor=#fad9d5;strokeColor=#ae4132;sketch=1;curveFitting=1;jiggle=2;" parent="1" vertex="1">
          <mxGeometry x="860" y="610" width="250" height="60" as="geometry" />
        </mxCell>
        <mxCell id="u2N5tnfLPqeON4IzgQOu-48" value="" style="endArrow=none;html=1;rounded=0;hachureGap=4;fontFamily=Times New Roman;startArrow=classic;startFill=1;endFill=0;fontSize=29;fillColor=#cce5ff;strokeColor=#CC0000;strokeWidth=3;sketch=1;curveFitting=1;jiggle=2;" parent="1" edge="1">
          <mxGeometry width="50" height="50" relative="1" as="geometry">
            <mxPoint x="1070" y="600" as="sourcePoint" />
            <mxPoint x="1140" y="530" as="targetPoint" />
          </mxGeometry>
        </mxCell>
        <mxCell id="u2N5tnfLPqeON4IzgQOu-49" value="&lt;div style=&quot;orphans: 4; text-align: left;&quot;&gt;&lt;span style=&quot;background-color: transparent; caret-color: rgb(0, 122, 255); white-space-collapse: preserve;&quot;&gt;&lt;font color=&quot;#333333&quot;&gt;terminate_connection&lt;/font&gt;&lt;/span&gt;&lt;/div&gt;" style="whiteSpace=wrap;html=1;fontSize=29;fontFamily=Times New Roman;rounded=1;hachureGap=4;labelBackgroundColor=none;fillColor=#fa6800;strokeColor=#C73500;fontColor=#000000;sketch=1;curveFitting=1;jiggle=2;" parent="1" vertex="1">
          <mxGeometry x="820" y="730" width="287.5" height="60" as="geometry" />
        </mxCell>
        <mxCell id="u2N5tnfLPqeON4IzgQOu-51" value="&lt;div style=&quot;orphans: 4; text-align: left;&quot;&gt;&lt;font color=&quot;#333333&quot;&gt;&lt;span style=&quot;caret-color: rgb(0, 122, 255); white-space-collapse: preserve;&quot;&gt;remove_export&lt;/span&gt;&lt;/font&gt;&lt;/div&gt;" style="whiteSpace=wrap;html=1;fontSize=29;fontFamily=Times New Roman;rounded=1;hachureGap=4;labelBackgroundColor=none;fillColor=#fa6800;strokeColor=#C73500;fontColor=#000000;sketch=1;curveFitting=1;jiggle=2;" parent="1" vertex="1">
          <mxGeometry x="1120" y="730" width="197.5" height="60" as="geometry" />
        </mxCell>
        <mxCell id="u2N5tnfLPqeON4IzgQOu-58" value="connector" style="edgeLabel;html=1;align=center;verticalAlign=middle;resizable=0;points=[];hachureGap=4;fontFamily=Times New Roman;fontSize=29;sketch=1;curveFitting=1;jiggle=2;" parent="1" vertex="1" connectable="0">
          <mxGeometry x="1070" y="570" as="geometry">
            <mxPoint x="22" y="-5" as="offset" />
          </mxGeometry>
        </mxCell>
        <mxCell id="u2N5tnfLPqeON4IzgQOu-59" value="" style="endArrow=classic;html=1;rounded=0;hachureGap=4;fontFamily=Times New Roman;fontSize=29;labelBackgroundColor=none;startArrow=classic;startFill=1;strokeColor=#FF0080;fillColor=#d80073;strokeWidth=2;sketch=1;curveFitting=1;jiggle=2;" parent="1" edge="1">
          <mxGeometry width="50" height="50" relative="1" as="geometry">
            <mxPoint x="1030" y="720" as="sourcePoint" />
            <mxPoint x="1185" y="530" as="targetPoint" />
          </mxGeometry>
        </mxCell>
        <mxCell id="u2N5tnfLPqeON4IzgQOu-60" value="" style="endArrow=classic;html=1;rounded=0;hachureGap=4;fontFamily=Times New Roman;fontSize=29;labelBackgroundColor=none;startArrow=classic;startFill=1;strokeColor=#FF0080;fillColor=#d80073;strokeWidth=2;sketch=1;curveFitting=1;jiggle=2;" parent="1" edge="1">
          <mxGeometry width="50" height="50" relative="1" as="geometry">
            <mxPoint x="1167.5" y="720" as="sourcePoint" />
            <mxPoint x="1312.5" y="540" as="targetPoint" />
          </mxGeometry>
        </mxCell>
        <mxCell id="u2N5tnfLPqeON4IzgQOu-62" value="" style="edgeStyle=orthogonalEdgeStyle;rounded=0;hachureGap=4;orthogonalLoop=1;jettySize=auto;html=1;fontFamily=Times New Roman;strokeWidth=2;fontSize=29;sketch=1;curveFitting=1;jiggle=2;" parent="1" source="u2N5tnfLPqeON4IzgQOu-61" target="u2N5tnfLPqeON4IzgQOu-1" edge="1">
          <mxGeometry relative="1" as="geometry" />
        </mxCell>
        <mxCell id="u2N5tnfLPqeON4IzgQOu-61" value="Client" style="rounded=1;whiteSpace=wrap;html=1;hachureGap=4;fontFamily=Times New Roman;fontSize=29;labelBackgroundColor=none;fillColor=#d5e8d4;strokeColor=#82b366;sketch=1;curveFitting=1;jiggle=2;" parent="1" vertex="1">
          <mxGeometry x="35" y="70" width="180" height="80" as="geometry" />
        </mxCell>
        <mxCell id="u2N5tnfLPqeON4IzgQOu-63" value="&lt;div&gt;&lt;font&gt;&amp;nbsp; &amp;nbsp; RPC&lt;/font&gt;&lt;/div&gt;" style="triangle;whiteSpace=wrap;html=1;hachureGap=4;fontFamily=Times New Roman;rotation=90;align=left;horizontal=0;fillColor=#d5e8d4;strokeColor=#82b366;fontSize=29;sketch=1;curveFitting=1;jiggle=2;" parent="1" vertex="1">
          <mxGeometry x="95" y="252.5" width="55" height="110" as="geometry" />
        </mxCell>
        <mxCell id="u2N5tnfLPqeON4IzgQOu-64" value="&lt;div&gt;&lt;font&gt;&amp;nbsp; &amp;nbsp; &amp;nbsp;RPC&lt;/font&gt;&lt;/div&gt;" style="triangle;whiteSpace=wrap;html=1;hachureGap=4;fontFamily=Times New Roman;rotation=90;align=left;horizontal=0;fillColor=#d5e8d4;strokeColor=#82b366;fontSize=29;sketch=1;curveFitting=1;jiggle=2;" parent="1" vertex="1">
          <mxGeometry x="88.75" y="378.75" width="57.5" height="120" as="geometry" />
        </mxCell>
        <mxCell id="u2N5tnfLPqeON4IzgQOu-65" value="&lt;div&gt;&lt;font&gt;&amp;nbsp; &amp;nbsp; &amp;nbsp;RPC&lt;/font&gt;&lt;/div&gt;" style="triangle;whiteSpace=wrap;html=1;hachureGap=4;fontFamily=Times New Roman;rotation=90;align=left;horizontal=0;fillColor=#d5e8d4;strokeColor=#82b366;fontSize=29;sketch=1;curveFitting=1;jiggle=2;" parent="1" vertex="1">
          <mxGeometry x="78.75" y="548.75" width="67.5" height="130" as="geometry" />
        </mxCell>
        <mxCell id="fazlAJEuUnBTTpoDclUt-4" value="_finish_backup" style="whiteSpace=wrap;html=1;fontSize=29;fontFamily=Times New Roman;rounded=1;hachureGap=4;labelBackgroundColor=none;fillColor=#f0a30a;strokeColor=#BD7000;fontColor=#000000;sketch=1;curveFitting=1;jiggle=2;" parent="1" vertex="1">
          <mxGeometry x="1370" y="470" width="180" height="60" as="geometry" />
        </mxCell>
        <mxCell id="1SHvitRKsGuPDSUTCexn-1" value="" style="endArrow=classic;html=1;rounded=0;hachureGap=4;fontFamily=Times New Roman;fontSize=29;labelBackgroundColor=none;startArrow=none;startFill=0;strokeColor=#FF0080;fillColor=#d80073;strokeWidth=2;sketch=1;curveFitting=1;jiggle=2;" edge="1" parent="1">
          <mxGeometry width="50" height="50" relative="1" as="geometry">
            <mxPoint x="370" y="700" as="sourcePoint" />
            <mxPoint x="504.495" y="540" as="targetPoint" />
          </mxGeometry>
        </mxCell>
      </root>
    </mxGraphModel>
  </diagram>
</mxfile>
